# xmcd
#
# Track frame offsets:
#	150
#	10500
#	23835
#	37957
#	51267
#	65025
#	75167
#	91132
#	105177
#	118015
#	130037
#	145390
#	154725
#	166735
#	176820
#	187002
#	198920
#	209187
#	223637
#	232740
#
# Disc length: 3252
#
# Revision: 1
# Processed by: cddbd v1.5.1PL0 Copyright (c) Steve Scherf et al.
# Submitted via: CDex 1.51
# Normalized: r0:DSETVAR1
#
DISCID=050cb214
DTITLE=Various Artist - Both Sides Now
DYEAR=1900
DGENRE=Country
TTITLE0=Anne Murry - Some Birds
TTITLE1=Don Williams - Where Do We Go From Here
TTITLE2=Anne Murry - Buffalo In The Park
TTITLE3=Don Williams - Ruby Tuesday
TTITLE4=Anne Murray - David's Song
TTITLE5=Emmylou Harris - Appartment No. 9
TTITLE6=Anne Murray - Both Sides Now
TTITLE7=Emmylou Harris - Just An Ordinary Day
TTITLE8=Anne Murry - All The Time
TTITLE9=Don Williams - On Her Way To Be A Woman
TTITLE10=Anne Murray - There Goes My Everything
TTITLE11=Emmylou Harrs - In My Life
TTITLE12=Anne Murray - The Last Thing On My Mind
TTITLE13=Don Williams - Take My Hand For A While
TTITLE14=Anne Murray - For Baby
TTITLE15=Don Williams - Follow Me Back To Louisville
TTITLE16=Anne Murray - It's All Over
TTITLE17=Emmylou Haris - The Long Walk From Childhood
TTITLE18=Anne Murray - Paths of Victory
TTITLE19=Don Williams - Always Something There To Remind Me
EXTD=
EXTT0=
EXTT1=
EXTT2=
EXTT3=
EXTT4=
EXTT5=
EXTT6=
EXTT7=
EXTT8=
EXTT9=
EXTT10=
EXTT11=
EXTT12=
EXTT13=
EXTT14=
EXTT15=
EXTT16=
EXTT17=
EXTT18=
EXTT19=
PLAYORDER=
